<?xml version="1.0" encoding="UTF-8"?>
<svg id="Layer_1" data-name="Layer 1" xmlns="http://www.w3.org/2000/svg" viewBox="0 0 600.17 164.26">
  <defs>
    <style>
      .cls-1 {
        fill: #fff;
      }
    </style>
  </defs>
  <path class="cls-1" d="M375.47,100.73c-6.59-.15-13.18-.29-19.78-.45-.66-.02-1.33-.1-1.99-.17-2.97-.32-5.95-.57-8.91-1-4.88-.71-9.69-1.67-14.12-4.07-2.39-1.29-4.7-2.66-6.96-4.18-3.81-2.56-6.8-5.82-9.33-9.57-1.99-2.95-3.55-6.11-5-9.36-1.39-3.12-2.25-6.37-3.05-9.65-.48-1.98-.7-4.04-.83-6.08-.27-4.43-.03-8.86,.57-13.26,.18-1.35,.6-2.71,1.15-3.97,1.49-3.39,2.9-6.85,4.75-10.04,1.6-2.75,3.76-5.18,5.67-7.75,2.88-3.86,6.89-6.39,10.79-9,1.54-1.03,3.36-1.69,5.11-2.34,2.22-.83,4.5-1.5,6.78-2.19,3.15-.95,6.43-1.2,9.68-1.37,3.25-.17,6.52-.03,9.78-.06,1.55-.01,3.11,0,4.64-.2,3.99-.54,7.96-.08,11.94,.08,1.38,.06,2.76-.04,4.13-.07,.55-.01,1.11-.11,1.66-.09,3.26,.08,6.51,.22,9.77,.28,1.16,.02,2.32-.16,3.48-.17,3.71-.03,7.41-.09,11.12-.02,4.37,.08,8.74,.3,13.11,.4,3.98,.09,7.97,.06,11.95,.17,1.43,.04,2.86,.26,4.27,.52,.96,.17,1.52,.93,1.69,1.86,.22,1.25,.43,2.52,.45,3.79,.08,4.21,.05,8.42,.11,12.64,.02,1.77,.21,3.54,.21,5.31,0,1.88-.03,3.77-.27,5.62-.25,1.96-1.21,2.63-3.18,2.62-3.49-.02-6.98-.16-10.47-.03-10.14,.38-20.27-.15-30.41-.29-1.6-.02-3.21,.08-4.81,.1-3.04,.05-6.09,.15-9.13,.11-6.76-.1-13.51-.3-20.27-.39-1.54-.02-3.08,.26-4.62,.37-1.38,.1-2.77,.06-4.13,.25-3.87,.54-7.49,1.65-9.91,5.05-1.59,2.24-2.27,4.83-2.53,7.48-.27,2.78,.28,5.49,1.35,8.12,1.91,4.7,5.58,6.92,10.37,7.43,6.56,.69,13.15,.8,19.75,.76,7.09-.05,14.18,.16,21.27,.33,5.87,.15,11.73,.72,17.51,1.69,7.48,1.26,14.34,3.97,20.27,8.93,5.83,4.87,10.14,10.73,13.1,17.71,2.43,5.71,3.57,11.68,3.71,17.79,.2,8.71-1.46,17.13-5.68,24.83-2.49,4.53-5.9,8.39-9.78,11.87-4.58,4.11-10.14,6.28-15.72,8.43-1.94,.75-4.08,.98-6.15,1.34-2.34,.41-4.7,.73-7.06,1.01-1.2,.15-2.43,.2-3.64,.2-2.27,.01-4.54-.06-6.81-.05-.83,0-1.65,.13-2.48,.19-1.05,.08-2.09,.22-3.14,.2-7.65-.13-15.29-.29-22.94-.43-2.49-.05-4.99-.22-7.47-.06-10.48,.67-20.93-.28-31.39-.34-4.98-.03-9.96,.26-14.94,.24-5.21-.02-10.42-.16-15.62-.39-1.64-.07-3.27-.55-4.86-.97-.54-.14-1.11-.6-1.41-1.07-.69-1.06-1.35-2.18-1.79-3.36-1.28-3.41-2.44-6.87-3.67-10.3-.86-2.39-1.77-4.77-2.66-7.15-2.08-5.54-4.17-11.08-6.24-16.62-.25-.67-.42-1.37-.64-2.06-.84-2.63-1.68-5.25-2.52-7.88-.05-.16-.13-.31-.17-.47-1.36-5.65-3.44-11.06-5.39-16.52-2.67-7.46-5.23-14.95-7.81-22.43-1.27-3.66-2.34-7.4-3.76-11-2.51-6.4-4.18-13.07-6.7-19.46-.65-1.65-1.31-3.3-2.14-4.86-1.09-2.06-2.81-3.22-5.26-3.1-1.29,.06-2.41,.47-3.24,1.44-.68,.79-1.43,1.61-1.83,2.55-1.05,2.44-1.94,4.94-2.86,7.43-.5,1.35-.93,2.72-1.36,4.1-1.04,3.33-2.05,6.67-3.1,9.99-.55,1.74-1.14,3.47-1.72,5.2-.9,2.68-1.83,5.34-2.71,8.02-1.49,4.52-2.96,9.05-4.45,13.57-1.21,3.68-2.45,7.35-3.63,11.04-.98,3.06-1.88,6.14-2.83,9.2-.77,2.48-1.59,4.95-2.36,7.44-1.01,3.28-1.99,6.57-3,9.84-.85,2.75-1.73,5.48-2.62,8.22-1.23,3.79-2.49,7.58-3.74,11.36-.26,.79-.58,1.56-.84,2.34-.33,.99-.62,2-.94,3-.26,.84-.52,1.69-.8,2.53-.49,1.47-.98,2.94-1.49,4.4-.49,1.41-.97,2.82-1.53,4.2-.13,.31-.5,.61-.83,.73-.57,.2-1.19,.33-1.79,.34-5.09,.04-10.18,.08-15.27,.05-3.99-.02-7.97-.14-11.95-.23-.5-.01-1-.07-1.48-.19-1.81-.45-2.72-1.78-2.33-3.6,.57-2.65,1.17-5.3,1.91-7.91,1.55-5.49,3.15-10.96,4.81-16.42,.92-3.01,2.02-5.97,2.98-8.97,1.08-3.37,2.04-6.78,3.15-10.15,.97-2.94,2.1-5.84,3.11-8.77,1.03-2.98,2-5.98,3-8.97,.23-.68,.46-1.37,.71-2.04,.92-2.49,1.92-4.95,2.74-7.47,.86-2.63,1.51-5.33,2.35-7.97,1.01-3.17,2.14-6.29,3.18-9.45,1.1-3.36,2.15-6.75,3.23-10.12,.59-1.84,1.22-3.68,1.83-5.52,1.07-3.26,2.15-6.52,3.21-9.79,1.63-5.06,3.16-10.15,4.9-15.17,1.21-3.5,2.57-6.97,4.13-10.33,.78-1.67,2.06-3.15,3.31-4.53,2.69-2.96,5.57-5.72,9.27-7.43,.85-.39,1.7-.82,2.59-1.13,4.04-1.37,8.11-2.6,12.38-3.06,1.59-.17,3.19-.61,4.77-.56,2.76,.08,5.53,.34,8.27,.7,4.02,.53,7.91,1.55,11.64,3.22,7.96,3.55,13.86,9.09,16.92,17.34,2.68,7.22,5.18,14.5,7.74,21.76,1.84,5.22,3.66,10.45,5.44,15.7,1.81,5.35,3.55,10.73,5.35,16.09,2.72,8.08,5.48,16.16,8.21,24.24,1.67,4.93,3.3,9.88,5,14.79,1.25,3.61,2.59,7.19,3.91,10.78,.21,.57,.47,1.13,.8,1.64,.7,1.08,1.68,1.73,3.03,1.75,3.66,.05,7.31,.16,10.97,.18,6.92,.04,13.85,.02,20.77,.05,5.26,.02,10.53,.05,15.79,.1,9.91,.1,19.82,.21,29.73,.33,1.55,.02,3.1,.12,4.65,.13,3.06,.01,6.08-.38,9-1.27,4.15-1.27,6.62-4.18,7.93-8.26,1.54-4.76,.64-9.2-1.62-13.45-1.78-3.35-4.88-4.78-8.48-5.48-5.58-1.08-11.24-1.05-16.88-1.18-3.21-.07-6.42-.01-9.63-.01,0,.08,0,.15,0,.23Z"/>
  <path class="cls-1" d="M126.92,95.73c0-6.65,.05-13.3-.02-19.94-.04-3.88-.29-7.75-.39-11.62-.11-4.37-.19-8.75-.23-13.13-.05-4.87-.04-9.75-.04-14.63,0-5.48,0-10.97,0-16.45,0-3.55,.03-7.09,.05-10.64,0-.61,.02-1.22,.13-1.82,.32-1.8,1.53-2.78,3.37-2.78,1.49,0,3.01,.19,4.48,0,3.87-.51,7.74-.34,11.61-.32,.88,0,1.79,.04,2.64,.24,2.71,.62,5.41-.22,8.1,.06,.64,.07,1.34,.15,1.89,.46,.78,.43,1.02,1.26,1.03,2.14,.05,3.32,.11,6.65,.15,9.97,.07,5.2-.05,10.4,.24,15.6,.22,3.81,.08,7.63,.12,11.45,.1,10.64,.19,21.28,.32,31.92,.12,9.42,.31,18.83,.45,28.25,.09,5.87,.16,11.74,.18,17.61,.02,4.82-.36,9.63-1.02,14.4-.6,4.33-2.15,8.38-4.77,11.91-1.21,1.63-2.74,3.05-4.19,4.49-.98,.97-2.07,1.84-3.14,2.72-.47,.39-.96,.78-1.5,1.03-3.61,1.7-7.18,3.51-10.88,4.97-2.19,.86-4.6,1.16-6.92,1.68-1.13,.26-2.27,.5-3.42,.66-1.14,.16-2.3,.34-3.44,.31-2.49-.08-4.97-.31-7.46-.44-1.17-.06-2.24-.31-3.35-.75-2-.79-4.13-1.23-6.2-1.85-.84-.25-1.67-.56-2.49-.9-1.07-.45-2.1-1.02-3.19-1.4-1.77-.61-3.14-1.8-4.65-2.83-3.24-2.22-5.83-5.09-8.52-7.88-.89-.93-1.56-1.98-2.01-3.21-.32-.87-.86-1.66-1.32-2.47-.13-.24-.35-.44-.46-.69-.9-1.95-1.89-3.87-2.64-5.88-1.06-2.85-1.96-5.76-2.89-8.66-.47-1.47-.85-2.98-1.3-4.46-.92-3.02-1.87-6.02-2.77-9.05-.81-2.7-1.56-5.42-2.35-8.13-.63-2.17-1.32-4.33-1.93-6.51-2.1-7.46-4.14-14.94-6.27-22.4-1.55-5.43-3.21-10.83-4.79-16.25-.36-1.22-.53-2.49-.89-3.71-.92-3.08-1.89-6.14-2.86-9.2-.9-2.85-1.8-5.7-2.77-8.52-.81-2.37-2.48-4.07-4.62-5.24-.94-.51-2.07-.84-3.14-.91-1.37-.1-2.8-.04-4.13,.28-2.79,.67-4.49,2.66-5.12,5.35-.5,2.14-.78,4.38-.78,6.58,0,4.87,.29,9.74,.35,14.62,.15,12.02,.24,24.05,.33,36.07,.04,6.2,0,12.41,.04,18.61,.02,2.94,.22,5.87,.27,8.8,.1,5.59,.15,11.19,.22,16.78,.07,5.15,.1,10.3,.21,15.45,.05,2.5-1.26,3.93-3.76,4-4.04,.11-8.07,.32-12.11,.39-2.82,.05-5.66,.04-8.47-.17-1.52-.12-3-.73-4.5-1.12-.16-.04-.3-.15-.46-.18-.8-.17-1.77-.12-2.19-.96-.56-1.13-1.29-2.32-1.35-3.51-.28-5.75-.37-11.51-.52-17.27-.11-4.15-.22-8.29-.34-12.44-.01-.39-.08-.78-.03-1.16,.37-2.94-.12-5.84-.24-8.76-.04-.82,.22-1.64,.26-2.47,.15-3.2,.34-6.41,.37-9.61,.04-5.71-.02-11.41-.05-17.12,0-.61,.07-1.26-.11-1.82-.7-2.16-.57-4.37-.58-6.58-.03-7.26-.13-14.52-.16-21.77-.02-6.7-.02-13.41,.07-20.11,.02-1.58,.41-3.16,.63-4.74,.03-.22,.16-.43,.16-.64-.06-2.42,.85-4.66,1.25-7,.31-1.8,1.13-3.31,2.13-4.8,1.88-2.83,3.9-5.5,6.53-7.69,1.67-1.39,3.31-2.79,5.3-3.69,3.48-1.57,6.8-3.55,10.56-4.4C32.26,.51,37.92-.27,43.75,.08c4.09,.25,8.04,1.07,11.87,2.23,4.17,1.26,8.16,3.12,11.63,5.9,2.86,2.3,5.48,4.84,7.68,7.79,2.19,2.95,3.95,6.17,5.18,9.62,1.64,4.58,3.07,9.24,4.53,13.88,1.1,3.48,2.16,6.98,3.14,10.5,1.55,5.55,3.01,11.12,4.54,16.67,.82,2.99,1.72,5.96,2.57,8.94,1.01,3.51,2.01,7.03,3.02,10.54,1.82,6.34,3.62,12.68,5.46,19.01,1.55,5.32,3.09,10.64,4.75,15.93,.64,2.05,1.41,4.1,2.43,5.99,1.67,3.09,4.42,4.55,7.95,4.44,.77-.03,1.57-.02,2.31-.21,2.78-.7,4.78-2.3,5.46-5.21,.27-1.18,.51-2.4,.53-3.6,.09-3.93,.1-7.87,.11-11.8,.02-4.99,0-9.97,0-14.96h0Z"/>
  <path class="cls-1" d="M513.88,4.74c.66-.06,1.34-.05,1.98-.19,3.91-.84,7.78-.71,11.7,.02,3.67,.69,7.22,1.67,10.61,3.25,7.88,3.67,13.65,9.33,16.62,17.63,1.7,4.75,3.48,9.46,5.13,14.23,2.82,8.16,5.58,16.34,8.32,24.52,2.92,8.72,5.78,17.45,8.7,26.17,1.28,3.83,2.68,7.63,3.99,11.46,1.43,4.19,2.81,8.4,4.23,12.59,2.8,8.29,5.62,16.57,8.39,24.87,1.23,3.68,2.35,7.39,3.55,11.07,.82,2.53,1.7,5.03,2.55,7.55,.14,.42,.28,.84,.38,1.27,.5,2.2-.31,3.36-2.56,3.73-1.26,.21-2.51,.4-3.78-.03-.35-.12-.78-.14-1.15-.07-3.19,.65-6.41,.23-9.61,.22-3.55,0-7.09-.17-10.64-.24-3.4-.07-5.37-1.48-6.51-4.63-1.23-3.37-2.54-6.72-3.77-10.1-.36-.99-.53-2.04-.88-3.03-1.33-3.75-2.73-7.48-4.04-11.24-1.41-4.08-2.7-8.19-4.11-12.27-1.08-3.13-2.31-6.22-3.39-9.35-1.03-2.98-1.94-6-2.94-9-.4-1.21-.89-2.39-1.3-3.59-2.13-6.18-4.24-12.36-6.37-18.54-2.22-6.44-4.45-12.87-6.66-19.31-2.19-6.39-4.37-12.78-6.56-19.17-.76-2.22-2.13-3.95-4.02-5.35-1.56-1.15-5.17-.67-6.43,1.15-1.63,2.36-2.7,4.96-3.6,7.62-1.7,5.03-3.2,10.14-4.8,15.21-.25,.79-.6,1.55-.85,2.34-.34,1.05-.63,2.11-.93,3.17-.11,.37-.16,.76-.28,1.13-1.91,5.84-3.85,11.67-5.75,17.51-1.93,5.9-3.83,11.8-5.74,17.7-2.63,8.11-5.26,16.23-7.88,24.34-2.04,6.32-4.07,12.65-6.1,18.97-1.27,3.95-2.55,7.9-3.84,11.85-.14,.42-.34,.82-.49,1.24-.84,2.39-2.46,3.44-5.06,3.39-7.98-.17-15.96-.2-23.94-.29-.83,0-1.67-.03-2.49-.12-2.11-.23-3.27-1.49-2.98-3.58,.3-2.13,.82-4.24,1.43-6.3,1.56-5.37,3.19-10.72,4.85-16.06,1.7-5.44,3.47-10.87,5.22-16.3,.76-2.37,1.55-4.74,2.33-7.11,1.9-5.79,3.82-11.57,5.72-17.36,1.64-5,3.25-10,4.89-15,1.76-5.36,3.53-10.72,5.28-16.09,1.65-5.05,3.25-10.12,4.92-15.16,.97-2.94,2.03-5.85,3.04-8.78,1.06-3.09,2.09-6.19,3.15-9.28,.48-1.41,1.01-2.81,1.53-4.21,.42-1.14,.83-2.28,1.28-3.41,.37-.92,.73-1.86,1.19-2.73,1.95-3.69,4.84-6.55,8.01-9.22,2.74-2.31,6.01-3.48,9.22-4.83,.82-.34,1.69-.56,2.49-.91,1.34-.59,2.72-.89,4.2-.81,.54,.03,1.09-.15,1.63-.25,.97-.17,1.95-.34,2.92-.51,.01,.07,.02,.14,.03,.2Z"/>
</svg>